<svg width="32" height="32" viewBox="0 0 32 32" fill="none" xmlns="http://www.w3.org/2000/svg">
<rect x="0.5" y="0.5" width="31" height="31" rx="15.5" stroke="black"/>
<path d="M22 16C22 16.4734 21.6162 16.8571 21.1429 16.8571H19.4286C18.0084 16.8571 16.8571 18.0084 16.8571 19.4286V21.1429C16.8571 21.6162 16.4734 22 16 22V22C15.5266 22 15.1429 21.6162 15.1429 21.1429V19.4286C15.1429 18.0084 13.9916 16.8571 12.5714 16.8571H10.8571C10.3838 16.8571 10 16.4734 10 16V16C10 15.5266 10.3838 15.1429 10.8571 15.1429H12.5714C13.9916 15.1429 15.1429 13.9916 15.1429 12.5714V10.8571C15.1429 10.3838 15.5266 10 16 10V10C16.4734 10 16.8571 10.3838 16.8571 10.8571V12.5714C16.8571 13.9916 18.0084 15.1429 19.4286 15.1429H21.1429C21.6162 15.1429 22 15.5266 22 16V16Z" fill="blue"/>
</svg>
